<svg xmlns="http://www.w3.org/2000/svg" width="66.857" height="38.512" viewBox="0 0 66.857 38.512">
  <g id="Groupe_129" data-name="Groupe 129" transform="translate(-7822.142 80.291)">
    <path id="Tracé_125" data-name="Tracé 125" d="M383.285,288.585h5.349v-3.21h-5.349Zm.11,26.743h5.133a.107.107,0,0,0,.106-.106V290.833a.109.109,0,0,0-.106-.106h-5.133a.108.108,0,0,0-.11.106v24.389a.106.106,0,0,0,.11.106m56.543-5.163c1.046-1.464,1.66-4.353,1.644-7.921-.026-4.09-.435-6.242-1.6-8.2a7.485,7.485,0,0,0-5.614-3.187c-2.158-.2-14.854-.133-14.854-.133s.465,4.927,4.545,4.927c1.036,0,3,.11,4.612.11,1.066,0,3.383-.13,4.223-.017a3.584,3.584,0,0,1,2.493,1.411c.823,1.169.983,2.908.983,5.063s-.03,4.239-1.431,5.548c-2.171,2.029-11.8,1.275-13.446.465a3.648,3.648,0,0,1-2.3-3.685c0-2.45-.076-4.847-.076-4.847.013-1.617.276-4.186-1.621-6.215-3-3.23-9.628-3.078-11.713-2.759a15.184,15.184,0,0,0-7.527,3.533v-3.533H393.02a.11.11,0,0,0-.109.106v24.389a.108.108,0,0,0,.109.106h5.133a.1.1,0,0,0,.106-.1c0-1.208.013-12.716.013-14.156a3.213,3.213,0,0,1,.91-2.467c4-4.353,12.267-3.662,13.941-1.112.767,1.152.647,3.5.647,5.346v20.943a.108.108,0,0,0,.109.106h5.133a.105.105,0,0,0,.107-.106l.013-12.4a4.439,4.439,0,0,0,2.626,2.108,60.728,60.728,0,0,0,11.076.328c2.517-.2,5.159-.89,7.1-3.645m4.854-21.58h5.349v-3.21h-5.349Zm5.242,2.141H444.9a.107.107,0,0,0-.106.106v24.389a.1.1,0,0,0,.106.106h5.133a.1.1,0,0,0,.107-.106V290.833a.107.107,0,0,0-.107-.106" transform="translate(7438.858 -365.666)" fill="#171f2a"/>
    <rect id="Rectangle_157" data-name="Rectangle 157" width="25.139" height="4.28" transform="translate(7822.142 -46.059)" fill="#00798c"/>
  </g>
</svg>
